<?xml version="1.0" encoding="utf-8"?>
<!-- Generator: Adobe Illustrator 26.0.2, SVG Export Plug-In . SVG Version: 6.00 Build 0)  -->
<svg version="1.1" id="Layer_1" xmlns="http://www.w3.org/2000/svg" xmlns:xlink="http://www.w3.org/1999/xlink" x="0px" y="0px"
	 viewBox="0 0 612 792" style="enable-background:new 0 0 612 792;" xml:space="preserve">
<style type="text/css">
	.st0{fill:#346867;}
</style>
<g>
	<path d="M344.4,343.1c-1.3-7.8-2.6-12.6-4.1-14.5c-1.5-1.9-4.1-2.6-7.8-2.3h-12.7V399c-0.2,4.7,0.4,7.7,1.8,9.1
		c1.4,1.4,4.9,2,10.4,1.8v5.1h-39.7v-5.1c5.5,0.1,8.9-0.5,10.3-1.8c1.4-1.3,2-4.4,1.8-9.1v-72.7h-12.7c-3.7-0.3-6.4,0.5-7.8,2.4
		c-1.4,1.9-2.8,6.7-4,14.4h-6.5c1-7.9,2.1-18.6,3.1-26.5h71.3c1,7.9,2.1,18.6,3.1,26.5H344.4z M405.4,409.7c0.3,1.4,0.7,2.9,1,4.3
		c-1.5,0.6-3.1,1-5,1.4c-1.8,0.3-4,0.5-6.6,0.5c-3.2,0-5.7-0.6-7.5-1.8c-1.8-1.2-3.1-3.1-3.9-5.8H383c-2.2,2.4-5,4.4-8.2,5.9
		c-3.2,1.6-7.4,2.4-12.6,2.4c-5,0-9.5-1.4-13.4-4.3c-4-2.9-6-7.3-6.3-13.2c0-3.4,0.7-6.5,2.2-9.2c1.5-2.7,3.9-5.1,7.2-7.2
		c5-3.3,12.3-6,21.8-8.1c3-0.7,6-1.5,9-2.2v-5.9c0-5-1-8.7-2.9-10.9c-1.9-2.2-4.8-3.4-8.5-3.3c-3.4,0-6.2,1-8.3,2.8
		c-2.1,1.9-3.8,4.4-4.9,7.6c-0.5,1.4-1.2,2.5-2.3,3.3c-1,0.8-2.5,1.2-4.5,1.2c-2,0-3.4-0.6-4.3-1.6c-0.9-1-1.3-2.3-1.3-3.8
		c0-3.5,2.1-6.8,6.4-9.8c4.3-3,11-4.6,20.2-4.8c6.9-0.2,12.8,1.1,17.6,4.1c4.8,3,7.3,9,7.5,18.1v31.8c0,3.4,0.4,5.9,1.1,7.4
		c0.7,1.5,1.8,2.3,3.1,2.2C403.1,410.7,404.3,410.3,405.4,409.7z M382.7,377.5c-6.2,1.7-11.8,4-16.7,6.9c-4.9,2.9-7.5,7.1-7.8,12.5
		c0.2,5,1.5,8.4,3.9,10c2.4,1.6,4.8,2.4,7.3,2.2c3-0.1,5.6-0.8,7.8-2.1c2.2-1.3,4-2.8,5.5-4.5V377.5z M516.2,409.1
		c-0.9-1.2-1.3-3.9-1.2-8.1v-30.8c-0.2-9-2.1-15.1-5.8-18.4c-3.7-3.3-8-4.8-13-4.7c-5,0.1-9.2,1.3-12.8,3.5c-3.6,2.2-6.7,4.9-9.3,8
		h-0.5c-1.4-4-3.6-7-6.6-8.8c-3-1.8-6.7-2.7-10.8-2.7c-4.5,0.1-8.5,1.2-12.1,3.4c-3.6,2.1-6.7,4.7-9.3,7.6h-0.1
		c-0.2-3.4-0.3-6.7-0.5-10.1c-0.7-0.3-1.3-0.6-1.9-0.9c-3.2,1.7-6.5,3.1-10,4.1c-3.5,1-7,1.8-10.4,2.2v4.2c3.7-0.2,6.1,0.3,7.1,1.6
		c1,1.3,1.5,4.1,1.3,8.4v32.7c0.1,4.5-0.3,7.4-1.3,8.7c-1,1.3-3.4,1.8-7.1,1.7v4.2h30.2v-4.2c-3.1,0.2-5.1-0.4-5.9-1.6
		c-0.9-1.2-1.2-4-1.1-8.3v-35.4c2.8-3.7,5.5-6.5,8.1-8.5c2.5-1.9,5.1-2.9,7.5-3c4.5,0.3,7.3,2.4,8.4,6.2c1.1,3.9,1.6,7.7,1.4,11.4
		v29.9c0.1,4-0.2,6.6-1.1,7.7c-0.8,1.1-2.8,1.6-5.9,1.5v4.2h28.6v-4.2c-3,0.2-5-0.3-5.8-1.5c-0.9-1.2-1.3-3.9-1.2-8.2v-35.7
		c2.3-3.5,4.7-6.2,7.2-8.2c2.5-2,5.3-3,8.3-3.1c4,0.2,6.6,1.9,8,5.3c1.3,3.4,2,7.3,1.9,12v30.3c0.1,4-0.3,6.5-1.2,7.7
		c-0.9,1.2-2.8,1.7-5.8,1.5v4.2H522v-4.2C519,410.8,517.1,410.3,516.2,409.1z"/>
	<path class="st0" d="M282.2,414.9h-13.5L205.1,319l-94.2,141.8H522v11.2H90l115.1-173.4L282.2,414.9z M220.1,424.5v10.9h-12.2
		v-10.9h-3.6v26.9h3.6v-12.5h12.2v12.5h3.6v-26.9H220.1z M275.9,437.9c0,3.9-1.4,7.3-4.1,10c-2.7,2.7-6.1,4.1-10,4.1
		c-4,0-7.3-1.4-10.1-4.1c-2.7-2.7-4.1-6-4.1-9.9c0-2.6,0.6-5,1.9-7.1c1.2-2.2,3-3.9,5.1-5.2c2.1-1.2,4.5-1.9,7-1.9
		c4,0,7.5,1.4,10.2,4.1C274.5,430.6,275.9,434,275.9,437.9z M270.9,432.6c-0.9-1.6-2.2-2.8-3.9-3.8c-1.7-1-3.4-1.4-5.3-1.4
		c-1.8,0-3.6,0.5-5.2,1.4c-1.6,1-2.9,2.2-3.8,3.9c-0.9,1.6-1.4,3.4-1.4,5.4c0,2.9,1,5.4,3,7.4c2,2,4.5,3,7.4,3
		c1.9,0,3.7-0.5,5.3-1.4c1.6-0.9,2.9-2.2,3.8-3.8c0.9-1.6,1.4-3.4,1.4-5.4C272.2,435.9,271.8,434.1,270.9,432.6z M303.5,447.8v-23.4
		h-3.6v26.9h13.5v-3.5H303.5z M359.1,438.2c0,2.7-0.6,5-1.7,7.1c-1.2,2-2.7,3.6-4.6,4.6c-1.9,1-4.5,1.5-7.8,1.5h-8.7v-26.9h5.9
		c4,0,6.8,0.3,8.6,1c2.6,0.9,4.7,2.5,6.1,4.8C358.3,432.4,359.1,435.1,359.1,438.2z M353.9,444c1-1.5,1.6-3.5,1.6-5.8
		c0-2.4-0.6-4.4-1.7-6.1c-1.1-1.7-2.7-2.8-4.8-3.4c-1.6-0.5-4.2-0.7-7.8-0.7h-1.3v19.9h2.5c3.5,0,6-0.2,7.3-0.6
		C351.4,446.7,352.8,445.6,353.9,444z M520.6,440.4c-0.9-1.3-2.5-2.9-4.7-4.5c-2.3-1.7-3.1-2.3-3.3-2.5c-0.6-0.6-1-1.1-1.2-1.6
		c-0.2-0.5-0.3-0.9-0.3-1.4c0-0.8,0.3-1.4,0.8-2c0.6-0.5,1.3-0.8,2.2-0.8c0.7,0,1.4,0.2,2,0.5c0.6,0.4,1.4,1.2,2.3,2.4l0.3,0.4
		l2.9-2.2l-0.3-0.4c-1.2-1.7-2.4-2.8-3.5-3.5c-2.2-1.2-4.9-1.3-7.1-0.1c-1.1,0.6-1.9,1.4-2.5,2.4c-0.6,1-0.9,2.1-0.9,3.3
		c0,1.5,0.5,3,1.5,4.2c0.6,0.8,1.9,2,4.1,3.6c2.1,1.6,3.5,2.9,4.3,4c0.5,0.7,0.8,1.5,0.8,2.3c0,0.7-0.2,1.3-0.5,1.9
		c-0.3,0.6-0.9,1.1-1.5,1.4c-0.7,0.4-1.4,0.5-2.2,0.5c-1.8,0-3.5-1.3-4.9-4l-0.2-0.5l-3,1.8l0.2,0.4c1.1,2,2.4,3.5,3.7,4.4
		c1.4,0.9,2.9,1.3,4.5,1.3c2.2,0,4-0.8,5.5-2.2c1.5-1.5,2.3-3.2,2.3-5.2C521.9,443.1,521.5,441.7,520.6,440.4z M428.6,443.5
		l-16.5-19h-1.3v26.9h3.7v-18.8l16.3,18.8h1.3v-26.9h-3.5V443.5z M382.5,451.3h3.6v-26.9h-3.6V451.3z M472.6,441.4h8.2
		c-0.4,2-1.4,3.7-3,5c-1.7,1.4-3.9,2.1-6.4,2.1c-2.1,0-4.1-0.5-5.8-1.4c-1.8-1-3.1-2.3-4.1-3.9c-1-1.7-1.5-3.5-1.5-5.3
		c0-1.8,0.5-3.5,1.4-5.1c1-1.6,2.3-2.9,4.1-3.9c3.2-1.7,6.7-2,10.4-0.4c1.7,0.7,3.2,1.8,4.6,3.1l0.4,0.3l2.7-2.6L483,429
		c-1.9-1.8-3.8-3.1-5.8-3.9c-2-0.8-4.1-1.2-6.4-1.2c-2.8,0-5.3,0.6-7.5,1.8c-2.2,1.2-4,3-5.2,5.1c-1.3,2.2-1.9,4.6-1.9,7.1
		c0,3.4,1.1,6.4,3.3,9c2.9,3.3,6.8,5.1,11.7,5.1c4,0,7.3-1.2,9.8-3.7c2.4-2.4,3.7-5.8,3.7-9.9v-0.5h-12.2V441.4z"/>
</g>
</svg>
