<svg width="318" height="136" viewBox="0 0 318 136" fill="none" xmlns="http://www.w3.org/2000/svg">
<path d="M140.4 26.5C139.1 18.7 137.8 13.9 136.3 12C134.8 10.1 132.2 9.39998 128.5 9.69998H115.8V82.4C115.6 87.1 116.2 90.1 117.6 91.5C119 92.9 122.5 93.5 128 93.3V98.4H88.3V93.3C93.8 93.4 97.2 92.8 98.6 91.5C100 90.2 100.6 87.1 100.4 82.4V9.69998H87.7C84 9.39998 81.3 10.2 79.9 12.1C78.5 14 77.1 18.8 75.9 26.5H69.4C70.4 18.6 71.5 7.9 72.5 0H143.8C144.8 7.9 145.9 18.6 146.9 26.5H140.4ZM201.4 93.1C201.7 94.5 202.1 96 202.4 97.4C200.9 98 199.3 98.4 197.4 98.8C195.6 99.1 193.4 99.3 190.8 99.3C187.6 99.3 185.1 98.7 183.3 97.5C181.5 96.3 180.2 94.4 179.4 91.7H179C176.8 94.1 174 96.1 170.8 97.6C167.6 99.2 163.4 100 158.2 100C153.2 100 148.7 98.6 144.8 95.7C140.8 92.8 138.8 88.4 138.5 82.5C138.5 79.1 139.2 76 140.7 73.3C142.2 70.6 144.6 68.2 147.9 66.1C152.9 62.8 160.2 60.1 169.7 58C172.7 57.3 175.7 56.5 178.7 55.8V49.9C178.7 44.9 177.7 41.2 175.8 39C173.9 36.8 171 35.6 167.3 35.7C163.9 35.7 161.1 36.7 159 38.5C156.9 40.4 155.2 42.9 154.1 46.1C153.6 47.5 152.9 48.6 151.8 49.4C150.8 50.2 149.3 50.6 147.3 50.6C145.3 50.6 143.9 50 143 49C142.1 48 141.7 46.7 141.7 45.2C141.7 41.7 143.8 38.4 148.1 35.4C152.4 32.4 159.1 30.8 168.3 30.6C175.2 30.4 181.1 31.7 185.9 34.7C190.7 37.7 193.2 43.7 193.4 52.8V84.6C193.4 88 193.8 90.5 194.5 92C195.2 93.5 196.3 94.3 197.6 94.2C199.1 94.1 200.3 93.7 201.4 93.1ZM178.7 60.9C172.5 62.6 166.9 64.9 162 67.8C157.1 70.7 154.5 74.9 154.2 80.3C154.4 85.3 155.7 88.7 158.1 90.3C160.5 91.9 162.9 92.7 165.4 92.5C168.4 92.4 171 91.7 173.2 90.4C175.4 89.1 177.2 87.6 178.7 85.9V60.9ZM312.2 92.5C311.3 91.3 310.9 88.6 311 84.4V53.6C310.8 44.6 308.9 38.5 305.2 35.2C301.5 31.9 297.2 30.4 292.2 30.5C287.2 30.6 283 31.8 279.4 34C275.8 36.2 272.7 38.9 270.1 42H269.6C268.2 38 266 35 263 33.2C260 31.4 256.3 30.5 252.2 30.5C247.7 30.6 243.7 31.7 240.1 33.9C236.5 36 233.4 38.6 230.8 41.5H230.7C230.5 38.1 230.4 34.8 230.2 31.4C229.5 31.1 228.9 30.8 228.3 30.5C225.1 32.2 221.8 33.6 218.3 34.6C214.8 35.6 211.3 36.4 207.9 36.8V41C211.6 40.8 214 41.3 215 42.6C216 43.9 216.5 46.7 216.3 51V83.7C216.4 88.2 216 91.1 215 92.4C214 93.7 211.6 94.2 207.9 94.1V98.3H238.1V94.1C235 94.3 233 93.7 232.2 92.5C231.3 91.3 231 88.5 231.1 84.2V48.8C233.9 45.1 236.6 42.3 239.2 40.3C241.7 38.4 244.3 37.4 246.7 37.3C251.2 37.6 254 39.7 255.1 43.5C256.2 47.4 256.7 51.2 256.5 54.9V84.8C256.6 88.8 256.3 91.4 255.4 92.5C254.6 93.6 252.6 94.1 249.5 94V98.2H278.1V94C275.1 94.2 273.1 93.7 272.3 92.5C271.4 91.3 271 88.6 271.1 84.3V48.6C273.4 45.1 275.8 42.4 278.3 40.4C280.8 38.4 283.6 37.4 286.6 37.3C290.6 37.5 293.2 39.2 294.6 42.6C295.9 46 296.6 49.9 296.5 54.6V84.9C296.6 88.9 296.2 91.4 295.3 92.6C294.4 93.8 292.5 94.3 289.5 94.1V98.3H318V94.1C315 94.2 313.1 93.7 312.2 92.5Z" fill="white"/>
<path d="M16.1 107.9V118.8H3.89998V107.9H0.299988V134.8H3.89998V122.3H16.1V134.8H19.7V107.9H16.1ZM71.9 121.3C71.9 125.2 70.5 128.6 67.8 131.3C65.1 134 61.7 135.4 57.8 135.4C53.8 135.4 50.5 134 47.7 131.3C45 128.6 43.6 125.3 43.6 121.4C43.6 118.8 44.2 116.4 45.5 114.3C46.7 112.1 48.5 110.4 50.6 109.1C52.7 107.9 55.1 107.2 57.6 107.2C61.6 107.2 65.1 108.6 67.8 111.3C70.5 114 71.9 117.4 71.9 121.3ZM66.9 116C66 114.4 64.7 113.2 63 112.2C61.3 111.2 59.6 110.8 57.7 110.8C55.9 110.8 54.1 111.3 52.5 112.2C50.9 113.2 49.6 114.4 48.7 116.1C47.8 117.7 47.3 119.5 47.3 121.5C47.3 124.4 48.3 126.9 50.3 128.9C52.3 130.9 54.8 131.9 57.7 131.9C59.6 131.9 61.4 131.4 63 130.5C64.6 129.6 65.9 128.3 66.8 126.7C67.7 125.1 68.2 123.3 68.2 121.3C68.2 119.3 67.8 117.5 66.9 116ZM99.5 131.2V107.8H95.9V134.7H109.4V131.2H99.5ZM155.1 121.6C155.1 124.3 154.5 126.6 153.4 128.7C152.2 130.7 150.7 132.3 148.8 133.3C146.9 134.3 144.3 134.8 141 134.8H132.3V107.9H138.2C142.2 107.9 145 108.2 146.8 108.9C149.4 109.8 151.5 111.4 152.9 113.7C154.3 115.8 155.1 118.5 155.1 121.6ZM149.9 127.4C150.9 125.9 151.5 123.9 151.5 121.6C151.5 119.2 150.9 117.2 149.8 115.5C148.7 113.8 147.1 112.7 145 112.1C143.4 111.6 140.8 111.4 137.2 111.4H135.9V131.3H138.4C141.9 131.3 144.4 131.1 145.7 130.7C147.4 130.1 148.8 129 149.9 127.4ZM316.6 123.8C315.7 122.5 314.1 120.9 311.9 119.3C309.6 117.6 308.8 117 308.6 116.8C308 116.2 307.6 115.7 307.4 115.2C307.2 114.7 307.1 114.3 307.1 113.8C307.1 113 307.4 112.4 307.9 111.8C308.5 111.3 309.2 111 310.1 111C310.8 111 311.5 111.2 312.1 111.5C312.7 111.9 313.5 112.7 314.4 113.9L314.7 114.3L317.6 112.1L317.3 111.7C316.1 110 314.9 108.9 313.8 108.2C311.6 107 308.9 106.9 306.7 108.1C305.6 108.7 304.8 109.5 304.2 110.5C303.6 111.5 303.3 112.6 303.3 113.8C303.3 115.3 303.8 116.8 304.8 118C305.4 118.8 306.7 120 308.9 121.6C311 123.2 312.4 124.5 313.2 125.6C313.7 126.3 314 127.1 314 127.9C314 128.6 313.8 129.2 313.5 129.8C313.2 130.4 312.6 130.9 312 131.2C311.3 131.6 310.6 131.7 309.8 131.7C308 131.7 306.3 130.4 304.9 127.7L304.7 127.2L301.7 129L301.9 129.4C303 131.4 304.3 132.9 305.6 133.8C307 134.7 308.5 135.1 310.1 135.1C312.3 135.1 314.1 134.3 315.6 132.9C317.1 131.4 317.9 129.7 317.9 127.7C317.9 126.5 317.5 125.1 316.6 123.8ZM224.6 126.9L208.1 107.9H206.8V134.8H210.5V116L226.8 134.8H228.1V107.9H224.6V126.9ZM178.5 134.7H182.1V107.8H178.5V134.7ZM268.6 124.8H276.8C276.4 126.8 275.4 128.5 273.8 129.8C272.1 131.2 269.9 131.9 267.4 131.9C265.3 131.9 263.3 131.4 261.6 130.5C259.8 129.5 258.5 128.2 257.5 126.6C256.5 124.9 256 123.1 256 121.3C256 119.5 256.5 117.8 257.4 116.2C258.4 114.6 259.7 113.3 261.5 112.3C264.7 110.6 268.2 110.3 271.9 111.9C273.6 112.6 275.1 113.7 276.5 115L276.9 115.3L279.6 112.7L279 112.4C277.1 110.6 275.2 109.3 273.2 108.5C271.2 107.7 269.1 107.3 266.8 107.3C264 107.3 261.5 107.9 259.3 109.1C257.1 110.3 255.3 112.1 254.1 114.2C252.8 116.4 252.2 118.8 252.2 121.3C252.2 124.7 253.3 127.7 255.5 130.3C258.4 133.6 262.3 135.4 267.2 135.4C271.2 135.4 274.5 134.2 277 131.7C279.4 129.3 280.7 125.9 280.7 121.8V121.3H268.5V124.8H268.6Z" fill="white"/>
</svg>
